<svg xmlns="http://www.w3.org/2000/svg" viewBox="0 0 99 99"><title>Browse</title><g id="Layer_2" data-name="Layer 2"><g id="Home_Page" data-name="Home Page"><path d="M49.5,0A49.5,49.5,0,1,0,99,49.5,49.5,49.5,0,0,0,49.5,0Zm0,87A37.5,37.5,0,1,1,87,49.5,37.5,37.5,0,0,1,49.5,87Z"/><path d="M62.23,60.26,72,30.94A3.11,3.11,0,0,0,68.06,27L38.74,36.77a3.12,3.12,0,0,0-2,2L27,68.06A3.11,3.11,0,0,0,30.94,72l29.32-9.77A3.12,3.12,0,0,0,62.23,60.26ZM44.61,53.9a6.92,6.92,0,1,1,9.78,0A6.9,6.9,0,0,1,44.61,53.9Z"/></g></g></svg>