<svg xmlns="http://www.w3.org/2000/svg" viewBox="0 0 112.12 98.47"><title>Needs</title><g id="Layer_2" data-name="Layer 2"><g id="Home_Page" data-name="Home Page"><path d="M111.42,90.73,60.53,2.58a5.16,5.16,0,0,0-8.94,0L.7,90.73a5.16,5.16,0,0,0,4.47,7.74H107A5.16,5.16,0,0,0,111.42,90.73Zm-19-3.46H19.7a2.34,2.34,0,0,1-2-3.52L54,20.76a2.35,2.35,0,0,1,4.06,0l36.37,63A2.35,2.35,0,0,1,92.43,87.27Z"/><path d="M51,68.23V66.11a7.88,7.88,0,0,1,1-4.06,10.34,10.34,0,0,1,3.49-3.23,13.15,13.15,0,0,0,2.86-2.26,3.39,3.39,0,0,0,.88-2.31,1.84,1.84,0,0,0-.94-1.63A4.33,4.33,0,0,0,55.8,52a19.17,19.17,0,0,0-8.67,2.63L43.72,48a25.34,25.34,0,0,1,12.77-3.49q5.48,0,8.6,2.41a7.83,7.83,0,0,1,3.12,6.56,9.36,9.36,0,0,1-1.39,5.14,14.08,14.08,0,0,1-4.44,4.12,17.49,17.49,0,0,0-3.23,2.44A2.79,2.79,0,0,0,58.5,67v1.26Zm-1.05,8.59a4.5,4.5,0,0,1,1.31-3.48,5.48,5.48,0,0,1,3.87-1.23,5.27,5.27,0,0,1,3.77,1.24,4.51,4.51,0,0,1,1.31,3.47,4.43,4.43,0,0,1-1.36,3.47,5.35,5.35,0,0,1-3.72,1.23,5.57,5.57,0,0,1-3.81-1.22A4.38,4.38,0,0,1,49.91,76.82Z"/></g></g></svg>